<svg width="234" height="239" viewBox="0 0 234 239" fill="none" xmlns="http://www.w3.org/2000/svg">
<rect y="2.69342" width="233.72" height="233.72" rx="116.86" fill="#F3DD18" fill-opacity="0.1"/>
<path d="M160.412 20.0962C157.838 11.9996 151.23 6.2544 141.809 3.95633C133.45 1.89876 124.242 3.12796 119.438 6.73539C118.642 6.14751 117.05 5.47947 114.609 6.46817C103.941 1.73843 82.6314 -1.97588 67.2929 4.25027C59.7829 7.32327 54.6081 12.3737 51.9279 19.3213C48.7169 27.6318 53.5466 34.6061 57.8191 40.7788C61.1363 45.562 64.0023 49.7039 62.2243 53.2044C55.9881 65.4697 58.1641 76.6661 68.3544 84.6826C76.5013 91.0958 88.3369 94.4093 99.4029 94.4093C107.391 94.4093 114.954 92.6724 120.42 89.1451C119.279 96.36 117.103 103.896 113.096 108.652C106.329 116.722 103.145 129.308 114.158 140.691C109.354 172.998 109.514 200.895 110.84 213.535C110.84 213.561 110.84 213.588 110.84 213.615C110.947 214.657 111.079 215.619 111.185 216.447C111.132 220.589 110.31 221.204 108.744 222.353C108.081 222.861 107.656 223.582 107.523 224.41C107.391 225.239 107.629 226.121 108.134 226.789L116.626 238.172C116.785 238.386 117.024 238.546 117.289 238.653C117.634 238.76 118.005 238.813 118.35 238.813C119.12 238.813 119.863 238.546 120.5 238.065C121.402 237.344 121.88 236.195 121.774 235.046C121.615 233.362 121.906 226.655 123.154 221.257C123.154 221.257 123.154 221.231 123.154 221.204C123.154 221.204 123.154 221.177 123.154 221.15C123.154 221.097 123.738 217.089 125.356 210.114C126.205 213 126.895 215.352 127.214 216.982C127.32 221.07 126.55 221.738 125.038 222.967C124.401 223.502 124.003 224.25 123.923 225.078C123.844 225.907 124.109 226.789 124.64 227.43L133.609 238.439C133.795 238.653 134.007 238.813 134.273 238.867C134.565 238.947 134.883 239 135.202 239C136.024 239 136.82 238.707 137.457 238.145C138.333 237.37 138.758 236.221 138.598 235.072C138.492 234.297 138.678 231.946 138.864 229.461C139.103 226.521 139.394 222.887 139.394 219.654C139.394 219.2 139.103 173.746 142.34 131.392C142.34 131.365 142.34 131.339 142.34 131.312C142.34 131.285 142.34 131.259 142.34 131.232C142.34 131.018 141.438 109.213 147.143 89.9468C147.648 88.2099 148.231 86.4195 148.815 84.6025C151.336 76.6928 154.202 67.7143 153.326 59.9116C153.247 59.1367 153.035 58.2281 152.716 57.2661C161.447 44.5733 162.402 26.4293 160.385 20.123L160.412 20.0962ZM69.9732 82.5983C63.5512 77.5479 57.3945 68.5427 64.5596 54.4336C67.0806 49.4901 63.6308 44.5199 59.9686 39.2557C55.8819 33.3502 51.6625 27.2844 54.3693 20.2833C56.7842 14.0571 61.4547 9.48773 68.2748 6.70867C82.1007 1.07039 101.154 3.98306 111.822 8.17837C111.053 8.89985 110.469 9.7015 110.177 10.5566C109.859 11.5453 109.912 12.534 110.363 13.4158C110.787 14.2709 111.477 14.5381 112.22 14.5381C113.123 14.5381 114.105 14.1373 114.848 13.8166C115.352 13.6029 116.201 13.2555 116.387 13.2555C116.493 13.3089 116.626 13.4158 116.785 13.5227C117.475 14.0037 118.616 14.7786 120.049 14.4312C120.925 14.2175 121.747 13.6296 122.49 12.6409C131.566 17.2103 137.457 22.3676 137.404 25.6811C136.926 27.1241 136.21 28.4601 129.815 28.861C124.534 29.1816 121.323 30.2238 120.049 32.0141C119.465 32.8158 119.412 33.6441 119.545 34.1519C119.704 34.7665 120.288 35.2475 120.898 35.2475C121.004 35.2475 121.084 35.2475 121.19 35.2207C121.906 35.0337 122.331 34.4191 122.145 33.6976C122.145 33.6976 122.862 31.9874 130 31.5331C132.389 31.3728 134.167 31.0789 135.493 30.678C137.882 32.6287 138.89 35.5147 138.811 36.2094C138.758 36.5835 138.36 37.2249 137.378 37.8662C135.812 38.9083 133.715 39.3359 132.282 38.9083C131.566 38.6946 130.849 39.1221 130.637 39.8169C130.425 40.5384 130.849 41.2598 131.539 41.4736C132.15 41.6607 132.813 41.7408 133.503 41.7408C133.715 41.7408 133.928 41.7141 134.14 41.6874C134.14 41.7675 134.14 41.8477 134.14 41.9546C134.432 43.1571 134.512 44.9207 134.591 46.2034V46.7912C134.114 46.9248 133.158 46.8714 132.681 46.6843C132.893 45.6422 132.76 44.3596 132.548 43.0769C132.548 42.8899 132.495 42.7028 132.415 42.5158C132.123 41.9279 131.433 41.6072 130.796 41.7943C130.292 41.9546 129.735 42.4089 129.921 43.5846C130.08 44.5733 130.16 45.3215 130.106 45.8293C128.275 46.8714 126.338 47.8067 124.321 48.5816C124.215 48.6083 124.136 48.6618 124.056 48.6885C117.13 51.3072 109.673 51.8416 105.56 47.7532C102.242 44.4397 100.916 36.6103 101.287 30.5979C101.499 27.0439 102.242 25.307 102.747 24.6924C104.498 24.4252 105.719 23.8907 106.409 22.9555C107.284 21.753 107.019 20.3902 106.886 19.5618C106.86 19.3748 106.807 19.2412 106.807 19.1877C106.913 18.9205 107.55 18.2792 107.948 17.9051C108.956 16.8896 110.681 15.2329 109.354 13.6029C108.717 12.8547 107.842 12.4004 106.833 12.2935C105.241 12.1332 103.41 12.8814 101.791 14.2442C99.4825 16.2216 99.4029 18.0921 99.6152 19.1877C92.5829 23.0624 85.9486 37.0111 87.8327 49.3565C89.0799 57.5334 95.1835 71.2149 121.535 72.2837C121.641 75.3033 121.535 80.1399 120.951 85.4843C109.726 94.8369 83.7725 93.4206 70.0262 82.5983H69.9732ZM102.694 19.4015C102.587 19.1075 102.375 18.867 102.136 18.7334C102.057 18.3861 102.057 17.5042 103.437 16.3285C104.498 15.4199 105.666 14.939 106.515 14.9924C106.674 14.9924 106.807 15.0458 106.913 15.0993C106.674 15.3932 106.303 15.7673 106.037 16.0078C105.161 16.8629 104.286 17.7447 104.127 18.8136C104.073 19.2412 104.127 19.6687 104.233 20.0962C104.339 20.6841 104.418 21.1384 104.233 21.3789C104.127 21.5125 103.675 21.94 101.95 22.1271C101.924 22.1271 101.897 22.1271 101.844 22.1538C101.765 22.1538 101.685 22.2073 101.605 22.234C101.526 22.2607 101.446 22.3141 101.367 22.3676C101.34 22.3676 101.314 22.3676 101.287 22.421C101.207 22.4745 101.154 22.5546 101.101 22.6081C101.101 22.6081 101.101 22.6081 101.075 22.6348C99.3764 24.2114 98.8191 27.7119 98.6333 30.4375C98.2353 36.8775 99.6417 45.6155 103.675 49.6772C106.356 52.3493 110.018 53.4717 114.051 53.4717C117.634 53.4717 121.508 52.5898 125.25 51.1469C125.542 51.2003 126.55 51.8416 127.692 55.0215C127.771 55.2353 127.851 55.4223 127.957 55.6094C130.531 62.9579 128.859 67.4204 127.638 69.4245C126.736 70.8942 125.516 71.9898 124.136 72.551C124.136 71.9898 124.082 71.4554 124.056 71.0011C124.056 70.9209 124.029 70.8675 124.003 70.814C124.003 70.7072 123.976 70.627 123.923 70.5468C123.897 70.4934 123.844 70.4399 123.817 70.3598C123.764 70.2796 123.711 70.1994 123.631 70.1193C123.578 70.0926 123.552 70.0658 123.499 70.0124C123.419 69.959 123.313 69.8788 123.207 69.8521C123.154 69.8521 123.074 69.8253 123.021 69.7986C122.941 69.7986 122.862 69.7452 122.782 69.7452C103.861 69.2909 92.3706 61.9424 90.3803 49.0359C88.4696 36.4767 95.9531 23.196 101.871 21.1651C102.561 20.9246 102.932 20.1764 102.694 19.4816V19.4015ZM127.983 49.9444C128.886 49.5168 129.788 49.0626 130.664 48.5816C130.664 48.5816 130.664 48.6083 130.69 48.6083C131.46 49.2763 132.681 49.5703 133.822 49.5703C134.644 49.5703 135.44 49.41 135.998 49.1427C136.422 48.929 136.741 48.635 136.953 48.2877C139.368 47.5662 141.703 47.8334 143.853 49.1695C145.047 49.9177 146.055 50.9064 146.958 52.002C144.092 56.1706 139.103 57.6402 135.334 57.2127C132.681 56.892 130.743 55.743 130.186 54.0863C129.523 52.2157 128.78 50.8797 127.957 49.9444H127.983ZM137.165 44.9474C137.086 43.745 136.98 42.4089 136.714 41.34C136.714 41.2866 136.661 41.2331 136.635 41.1797C137.378 40.9125 138.121 40.5651 138.811 40.1375C140.323 39.1221 141.252 37.8662 141.411 36.5568C141.597 34.9802 140.403 31.8271 138.041 29.4488C139.129 28.5938 139.58 27.5249 139.978 26.3491C139.978 26.2957 139.978 26.2422 139.978 26.1888C139.978 26.1354 140.031 26.0819 140.031 26.0285C140.031 25.975 140.031 25.9216 140.031 25.8681C140.031 25.8414 140.031 25.8147 140.031 25.7612C140.137 20.6574 132.946 15.5001 127.479 12.3202C132.787 13.7098 140.376 17.6913 143.402 23.383C145.525 27.418 146.002 31.6133 144.755 35.5414C143.587 39.2557 140.854 42.5959 137.192 44.9207L137.165 44.9474ZM118.828 236.008C118.828 236.008 118.616 236.168 118.43 236.168L110.257 225.212C110.15 225.052 110.15 224.891 110.15 224.811C110.15 224.731 110.204 224.597 110.416 224.437C111.106 223.929 111.716 223.422 112.194 222.807C113.6 226.896 116.307 230.53 119.067 232.507C119.014 233.736 119.04 234.725 119.067 235.313C119.094 235.714 118.881 235.927 118.775 236.008H118.828ZM112.751 200.869C115.936 204.396 120.022 207.335 122.198 208.778C120.739 209.874 117.873 211.477 113.361 211.878C113.096 208.885 112.884 205.198 112.778 200.869H112.751ZM119.306 229.194C116.493 226.468 113.68 221.605 113.866 216.715L120.182 222.567C119.757 224.785 119.492 227.109 119.306 229.167V229.194ZM120.765 219.494L115.246 214.363C118.324 213.882 120.633 212.893 122.278 211.905C121.482 215.512 121.004 218.077 120.765 219.494ZM123.552 206.453C120.925 204.69 115.538 200.762 112.698 196.486C112.618 186.145 113.123 173.025 114.635 158.408C115.856 174.147 119.173 188.256 122.145 198.864C122.145 198.864 122.145 198.864 122.145 198.891C122.756 201.109 123.366 203.14 123.923 205.037C123.791 205.518 123.684 205.972 123.578 206.453H123.552ZM126.152 203.274C129.602 206.026 133.662 207.816 135.732 208.618C135.042 209.847 133.211 211.744 128.833 212.279C128.435 210.836 127.957 209.232 127.4 207.442C127.028 206.16 126.604 204.743 126.152 203.247V203.274ZM136.024 235.42C136.077 235.794 135.865 236.034 135.759 236.115C135.706 236.168 135.547 236.275 135.361 236.302L126.736 225.72C126.736 225.72 126.604 225.479 126.63 225.319C126.63 225.239 126.683 225.105 126.895 224.918C127.559 224.357 128.143 223.849 128.594 223.208C130.213 227.296 133.132 230.85 136.051 232.694C135.971 233.923 135.971 234.805 136.051 235.393L136.024 235.42ZM136.29 229.247C136.29 229.381 136.29 229.488 136.263 229.621C133.238 227.109 129.974 222.166 129.974 217.115L136.714 222.861C136.608 225.078 136.449 227.323 136.29 229.247ZM136.794 219.413L131.168 214.63C133.928 213.962 135.679 212.76 136.82 211.557C136.82 215.886 136.82 218.639 136.82 219.413H136.794ZM136.847 206.186C134.326 205.224 127.851 202.392 124.666 197.983C120.659 183.58 115.989 162.79 116.917 140.29C116.917 140.29 116.917 140.29 116.917 140.264C116.917 140.184 116.917 140.13 116.891 140.05C116.891 139.97 116.891 139.916 116.864 139.836C116.864 139.81 116.864 139.783 116.864 139.756C116.864 139.703 116.811 139.649 116.758 139.596C116.732 139.516 116.679 139.462 116.626 139.409C116.626 139.382 116.599 139.355 116.572 139.329C116.572 139.329 116.572 139.329 116.572 139.302C104.127 126.93 111.583 114.905 114.821 110.87C124.295 110.977 136.794 113.382 139.793 131.339C137.643 159.744 137.059 189.485 136.9 206.186H136.847ZM146.347 83.7474C145.763 85.5912 145.18 87.4082 144.675 89.1451C141.119 101.09 140.084 113.943 139.793 122.28C134.273 110.148 123.074 108.438 116.758 108.198C122.835 98.9787 124.215 83.9611 124.242 75.2231C126.524 74.5818 128.567 73.032 129.974 70.7339C131.168 68.7565 132.707 64.8284 131.646 58.8694C132.681 59.3504 133.848 59.6711 135.122 59.8314C135.626 59.8849 136.183 59.9116 136.714 59.9116C140.748 59.9116 145.498 58.2014 148.629 54.2733C149.85 56.411 150.593 58.6289 150.752 60.1521C151.575 67.3937 148.789 76.0782 146.347 83.7206V83.7474ZM151.575 54.2199C150.222 51.4408 148.125 48.6083 145.339 46.8714C144.012 46.043 142.579 45.562 141.119 45.3215C144.038 42.8364 146.241 39.7367 147.303 36.343C148.762 31.6935 148.231 26.7767 145.763 22.1004C141.066 13.2555 126.604 7.88443 121.906 9.38084C121.88 9.38084 121.853 9.38084 121.827 9.38084C121.827 9.38084 121.8 9.38084 121.774 9.38084C121.721 9.38084 121.668 9.43429 121.615 9.48773C121.535 9.54117 121.429 9.56789 121.376 9.64806C121.296 9.7015 121.243 9.78167 121.19 9.86183C121.137 9.91528 121.084 9.942 121.057 10.0222C120.208 11.5453 119.624 11.7858 119.465 11.8392C119.173 11.9194 118.802 11.6789 118.297 11.3315C117.952 11.091 117.581 10.8505 117.183 10.7169C116.148 10.423 114.98 10.904 113.866 11.3582C113.521 11.4919 113.043 11.7056 112.672 11.8125C112.672 11.7056 112.672 11.572 112.751 11.4117C113.016 10.61 113.945 9.7015 115.193 9.0869C116.811 8.28525 117.607 8.63263 117.899 8.84641C117.952 9.11362 118.032 9.38084 118.244 9.59461C118.775 10.129 119.598 10.129 120.128 9.59461C123.817 5.8803 133.079 4.54421 141.226 6.54834C146.161 7.75082 154.866 11.2246 157.944 20.8979C159.669 26.3758 158.82 42.489 151.575 54.2199Z" fill="#383600"/>
</svg>
